<svg xmlns="http://www.w3.org/2000/svg" viewBox="0 0 256 256" role="img" aria-labelledby="title desc">
  <title id="title">PocketOS App1 - Solitaire</title>
  <desc id="desc">Green table with seven face-down stacks, four empty foundations, a blue stock, and a descending face-up pile.</desc>
	<rect x="16" y="16" width="224" height="224" rx="32" fill="#0f981f" />
	<g transform="translate(32 34.5)">
		<g>
			<rect x="0" y="20" width="24" height="36" rx="3" fill="#058005" />
			<rect x="28" y="20" width="24" height="36" rx="3" fill="#058005" />
			<rect x="56" y="20" width="24" height="36" rx="3" fill="#058005" />
			<rect x="84" y="20" width="24" height="36" rx="3" fill="#058005" />
			<rect x="168" y="20" width="24" height="36" rx="3" fill="#0066ff" stroke="#ffffff" stroke-width="2.5" />
		</g>

		<g>
			<rect x="0" y="80" width="24" height="36" rx="3" fill="#058005" />
			<rect x="28" y="80" width="24" height="42" rx="3" fill="#058005" />
			<rect x="56" y="80" width="24" height="48" rx="3" fill="#058005" />
			<rect x="84" y="80" width="24" height="54" rx="3" fill="#058005" />
			<rect x="112" y="80" width="24" height="60" rx="3" fill="#058005" />
			<rect x="140" y="80" width="24" height="66" rx="3" fill="#058005" />
			<rect x="168" y="80" width="24" height="72" rx="3" fill="#058005" />
		</g>

		<g>
			<rect x="0" y="80" width="24" height="36" rx="3" fill="#ffffff" />
			<rect x="28" y="86" width="24" height="36" rx="3" fill="#ffffff" />
			<rect x="56" y="92" width="24" height="36" rx="3" fill="#ffffff" />
			<rect x="84" y="98" width="24" height="36" rx="3" fill="#ffffff" />
			<rect x="112" y="104" width="24" height="36" rx="3" fill="#ffffff" />
			<rect x="140" y="110" width="24" height="36" rx="3" fill="#ffffff" />
			<rect x="168" y="116" width="24" height="36" rx="3" fill="#ffffff" />
		</g>
	</g>
</svg>
