<?xml version="1.0" encoding="utf-8"?>
<!-- Generator: Adobe Illustrator 28.0.0, SVG Export Plug-In . SVG Version: 6.00 Build 0)  -->
<svg version="1.0" xmlns="http://www.w3.org/2000/svg" xmlns:xlink="http://www.w3.org/1999/xlink" x="0px" y="0px"
	 viewBox="0 0 256 256" style="enable-background:new 0 0 256 256;" xml:space="preserve">
<style type="text/css">
	.st0{fill:#553399;}
	.st1{fill:#FFFFFF;}
</style>

<g id="Layer_3">
	<!-- <path class="st0" d="M48,16h160c17.7,0,32,14.3,32,32v160c0,17.7-14.3,32-32,32H48c-17.7,0-32-14.3-32-32V48C16,30.3,30.3,16,48,16
		z"/> -->

		<!-- solid rect filling the whole icon -->
	<rect width="256" height="256" fill="#553399"/>
</g>
<g id="Layer_2">
	<path class="st1" d="M191.3,55L68.7,55c-6.5,0-11.7,5.4-11.5,11.9l1.9,53.5c0,1.2,0.9,2.2,2.1,2.4l2.9,0.6l1.8,50.6
		c0.2,6.3,4.4,11.7,10.3,13.7l53,17.2c0.3,0.1,0.5,0.1,0.8,0.1s0.5,0,0.8-0.1l53-17.2c5.9-1.9,10.1-7.4,10.3-13.7l0,0l1.8-50.6
		l2.9-0.6c1.2-0.2,2-1.2,2.1-2.4l1.9-53.5C203,60.4,197.8,55,191.3,55z"/>
	<path class="st0" d="M190.8,124.4l-8.6,1.7l-5.2,1c-51.7,10.8-42.3,10.7-93.9,0l-5.2-1l-8.6-1.7c2.5,74.9-6.5,50.4,60.8,75.3
		l52.2-16.9h0c3.9-1.3,6.6-4.9,6.8-9L190.8,124.4l-8.6,1.7"/>
	<path class="st0" d="M68.7,60.1l122.5,0c3.6,0,6.5,3,6.4,6.6l-1.8,51.5c-72,15-59.4,15.1-131.6,0l-1.8-51.5
		C62.2,63.1,65.1,60.1,68.7,60.1"/>
</g>
<g id="Layer_1">
	<path class="st1" d="M91.1,175.4c-0.4,1.1-1.4,1.8-2.4,1.8c-0.3,0-0.5,0-0.8-0.1l-6.5-2.1c-1-0.3-1.7-1.3-1.8-2.4l-0.2-4.9
		c-0.1-1.4,1.1-2.6,2.5-2.7c1.5-0.1,2.6,1.1,2.7,2.5l0.1,3.1l4.8,1.6C90.7,172.6,91.5,174.1,91.1,175.4"/>
	<path class="st1" d="M78.9,153.9l-0.4-11.7c-0.1-1.4,1.1-2.6,2.5-2.7c1.4,0,2.6,1.1,2.7,2.5l0.4,11.7c0.1,1.4-1.1,2.6-2.5,2.7h-0.1
		C80,156.3,78.9,155.2,78.9,153.9"/>
	<path class="st1" d="M180.7,165.7l-0.2,6.9c0,1.1-0.8,2-1.8,2.4l-4.6,1.5c-0.3,0.1-0.5,0.1-0.8,0.1c-1.1,0-2.1-0.7-2.4-1.8
		c-0.4-1.3,0.3-2.8,1.7-3.2l2.9-1l0.2-5.1c0.1-1.4,1.2-2.5,2.7-2.5C179.6,163.1,180.8,164.3,180.7,165.7"/>
	<path class="st1" d="M162,177.7c0.4,1.3-0.3,2.8-1.7,3.2l-11.2,3.6c-0.3,0.1-0.5,0.1-0.8,0.1c-1.1,0-2.1-0.7-2.4-1.8
		c-0.4-1.3,0.3-2.8,1.7-3.2l11.2-3.6C160.1,175.6,161.6,176.3,162,177.7"/>
	<path class="st1" d="M139.7,184.9c0.4,1.3-0.3,2.8-1.7,3.2l-7.3,2.4c-0.3,0.1-0.5,0.1-0.8,0.1s-0.5,0-0.8-0.1l-3.9-1.3
		c-1.3-0.4-2.1-1.9-1.7-3.2c0.4-1.3,1.9-2.1,3.2-1.7l3.1,1l6.5-2.1C137.8,182.8,139.2,183.5,139.7,184.9"/>
	<path class="st1" d="M117.4,183.9c-0.4,1.1-1.4,1.8-2.4,1.8c-0.3,0-0.5,0-0.8-0.1L103,182c-1.3-0.4-2.1-1.9-1.7-3.2
		c0.4-1.3,1.9-2.1,3.2-1.7l11.2,3.6C117.1,181.2,117.8,182.6,117.4,183.9"/>
	<path class="st1" d="M176.1,153.9l-0.4-11.7c-0.1-1.4,1.1-2.6,2.5-2.7c1.4,0,2.6,1.1,2.7,2.5l0.4,11.7c0.1,1.4-1.1,2.6-2.5,2.7
		h-0.1C177.3,156.3,176.2,155.2,176.1,153.9"/>
	<circle class="st1" cx="130" cy="111" r="10"/>
</g>
</svg>
